<?xml version="1.0" standalone="no"?>
<!DOCTYPE svg PUBLIC "-//W3C//DTD SVG 20010904//EN"
 "http://www.w3.org/TR/2001/REC-SVG-20010904/DTD/svg10.dtd">
<svg version="1.0" xmlns="http://www.w3.org/2000/svg"
 width="480.000000pt" height="480.000000pt" viewBox="0 0 480.000000 480.000000"
 preserveAspectRatio="xMidYMid meet">
<metadata>
Created by potrace 1.11, written by Peter Selinger 2001-2013
</metadata>
<g transform="translate(0.000000,480.000000) scale(0.100000,-0.100000)"
fill="#000000" stroke="none">
<path d="M3110 3510 c-8 -4 -39 -11 -67 -15 -29 -4 -55 -11 -58 -16 -3 -4 -25
-17 -49 -28 -24 -10 -47 -24 -50 -30 -4 -6 -22 -17 -39 -25 -42 -17 -117 -93
-117 -117 0 -11 -5 -19 -10 -19 -6 0 -15 -12 -21 -27 -22 -59 -50 -111 -64
-116 -7 -3 -16 -19 -20 -35 -3 -17 -15 -38 -26 -48 -19 -17 -23 -17 -47 -3
-214 125 -226 131 -284 137 -52 4 -66 1 -123 -28 -66 -33 -136 -99 -167 -157
-22 -42 -69 -65 -142 -68 -156 -8 -258 -115 -242 -254 9 -76 -6 -107 -77 -160
-111 -82 -146 -136 -147 -223 0 -64 -14 -96 -61 -141 -50 -48 -61 -76 -60
-152 0 -76 49 -177 152 -315 74 -99 238 -267 293 -301 64 -39 138 -15 227 75
l56 56 47 -21 c29 -13 55 -18 69 -13 68 21 225 165 247 227 13 33 17 37 50 37
20 0 45 7 56 15 28 21 29 20 43 -34 13 -53 59 -106 102 -116 38 -9 89 20 189
109 47 42 130 104 185 138 174 107 241 163 261 213 33 86 0 341 -57 442 l-29
52 34 26 c18 14 40 25 48 25 19 0 102 46 118 65 7 8 17 15 23 15 12 0 107 99
107 112 0 4 8 16 19 27 10 10 34 49 52 87 30 60 34 80 38 162 3 103 -8 160
-47 229 -34 62 -99 127 -157 159 -78 43 -221 73 -255 54z m-80 -94 c0 -2 -7
-7 -16 -10 -8 -3 -12 -2 -9 4 6 10 25 14 25 6z m90 0 c0 -2 -7 -7 -16 -10 -8
-3 -12 -2 -9 4 6 10 25 14 25 6z m90 -10 c0 -2 -7 -7 -16 -10 -8 -3 -12 -2 -9
4 6 10 25 14 25 6z m-145 -16 c3 -5 1 -10 -4 -10 -6 0 -11 5 -11 10 0 6 2 10
4 10 3 0 8 -4 11 -10z m96 -17 c13 -16 12 -17 -3 -4 -10 7 -18 15 -18 17 0 8
8 3 21 -13z m-137 -18 c-10 -8 -23 -14 -29 -14 -5 0 -1 6 9 14 11 8 24 15 30
15 5 0 1 -7 -10 -15z m96 1 c0 -2 -7 -7 -16 -10 -8 -3 -12 -2 -9 4 6 10 25 14
25 6z m86 -21 c-8 -8 -18 -15 -22 -15 -3 0 -1 7 6 15 7 8 17 15 22 15 5 0 3
-7 -6 -15z m104 -10 c0 -2 -10 -10 -22 -16 -21 -11 -22 -11 -9 4 13 16 31 23
31 12z m-149 -22 c13 -16 12 -17 -3 -4 -10 7 -18 15 -18 17 0 8 8 3 21 -13z
m-285 -48 c-7 -42 -5 -47 26 -77 l33 -32 -40 29 c-22 15 -52 40 -68 54 l-27
25 27 23 c45 36 56 30 49 -22z m154 25 c0 -5 -5 -10 -11 -10 -5 0 -7 5 -4 10
3 6 8 10 11 10 2 0 4 -4 4 -10z m109 -4 c-2 -2 -15 -9 -29 -16 -23 -12 -24
-12 -11 3 7 10 20 17 29 17 8 0 13 -2 11 -4z m100 -9 c-2 -1 -15 -11 -28 -22
l-24 -20 12 23 c6 12 19 22 28 22 9 0 14 -1 12 -3z m-155 -70 c20 -19 32 -25
40 -17 5 5 15 10 21 10 5 0 2 -7 -8 -14 -16 -13 -13 -18 45 -75 l63 -61 -31 0
c-17 0 -42 9 -55 21 -36 31 -77 50 -111 51 -27 1 -29 4 -23 27 4 14 10 27 15
29 5 2 2 19 -6 37 -8 19 -14 37 -14 41 0 8 26 -12 64 -49z m316 39 c0 -2 -8
-10 -17 -17 -16 -13 -17 -12 -4 4 13 16 21 21 21 13z m-160 -71 c-7 -9 -15
-13 -19 -10 -3 3 1 10 9 15 21 14 24 12 10 -5z m-409 -12 c13 -16 12 -17 -3
-4 -17 13 -22 21 -14 21 2 0 10 -8 17 -17z m499 -8 c-7 -8 -16 -15 -21 -15 -5
0 -1 8 9 18 20 22 31 19 12 -3z m-575 -15 c3 -5 1 -10 -4 -10 -6 0 -11 5 -11
10 0 6 2 10 4 10 3 0 8 -4 11 -10z m120 0 c-3 -5 -12 -10 -18 -10 -7 0 -6 4 3
10 19 12 23 12 15 0z m105 0 c8 -5 11 -12 8 -15 -4 -4 -17 0 -30 9 -24 17 -5
23 22 6z m-75 -48 c-3 -3 -11 0 -18 7 -9 10 -8 11 6 5 10 -3 15 -9 12 -12z
m-160 -51 c8 -16 19 -31 24 -33 5 -1 -1 -11 -14 -21 -24 -17 -25 -17 -59 13
-34 31 -34 31 -18 60 19 34 43 27 67 -19z m160 -39 c-3 -3 -11 0 -18 7 -9 10
-8 11 6 5 10 -3 15 -9 12 -12z m-73 -34 c13 -13 17 -18 8 -12 -8 6 -24 16 -35
22 -11 6 -15 12 -8 12 7 0 22 -10 35 -22z"/>
</g>
</svg>
